<?xml version="1.0" encoding="utf-8"?>
<!-- Generator: Adobe Illustrator 16.0.0, SVG Export Plug-In . SVG Version: 6.00 Build 0)  -->
<!DOCTYPE svg PUBLIC "-//W3C//DTD SVG 1.1//EN" "http://www.w3.org/Graphics/SVG/1.1/DTD/svg11.dtd">
<svg version="1.1" id="Calque_1" xmlns="http://www.w3.org/2000/svg" xmlns:xlink="http://www.w3.org/1999/xlink" x="0px" y="0px"
	 width="1024px" height="1024px" viewBox="0 0 1024 1024" enable-background="new 0 0 1024 1024" xml:space="preserve">
<g id="Calque_1_1_">
	<rect x="-0.116" y="-0.116" opacity="0.1" enable-background="new    " width="1024" height="1024"/>
</g>
<g id="Calque_2">
	<g opacity="0.6">
		<polygon fill-opacity="0" points="711.83,1024.116 712.018,1023.884 711.728,1023.884 		"/>
		<polygon fill-opacity="0" points="347.606,151.619 347.298,151.453 169.216,123.661 347.298,418.106 		"/>
		<polygon fill-opacity="0" points="55.883,363.661 64.995,720.55 216.994,555.884 		"/>
		<polygon fill-opacity="0" points="457.146,862.988 652.549,891.438 616.993,774.139 		"/>
		<polygon fill-opacity="0" points="616.993,774.139 856.993,843.509 786.595,678.935 786.595,678.935 		"/>
		<polygon fill-opacity="0" points="347.298,151.453 347.606,151.619 347.606,151.196 		"/>
		<polygon fill-opacity="0" points="712.549,67.557 888.106,-0.116 579.906,-0.116 		"/>
		<polygon fill-opacity="0" points="616.993,774.139 722.549,529.216 479.218,600.328 		"/>
		<polygon fill-opacity="0" points="1023.884,-0.116 888.106,-0.116 876.993,151.453 		"/>
		<path fill-opacity="0" d="M786.595,678.935L786.595,678.935L786.595,678.935z"/>
		<polygon fill-opacity="0" points="786.595,678.935 786.595,678.935 1023.884,703.419 1023.884,685.596 888.106,486.994 		"/>
		<polygon fill-opacity="0" points="548.106,477.564 548.106,260.326 347.298,418.106 		"/>
		<polygon fill-opacity="0" points="237.451,801.987 237.451,801.986 237.451,801.986 		"/>
		<polygon fill-opacity="0" points="548.106,477.564 479.218,600.328 722.549,529.216 		"/>
		<polygon fill-opacity="0" points="237.451,801.986 479.218,600.328 347.298,418.106 		"/>
		<polygon fill-opacity="0" points="555.942,1023.884 556.099,1023.884 556.027,1023.766 		"/>
		<polygon fill-opacity="0" points="142.995,880.773 236.09,1023.884 248.417,1023.884 457.146,862.988 		"/>
		<polygon fill-opacity="0" points="64.995,720.55 -0.116,586.805 -0.116,843.509 -0.116,843.509 		"/>
		<path fill-opacity="0" d="M-0.116,843.509L-0.116,843.509L-0.116,843.509z"/>
		<polygon fill-opacity="0" points="712.018,1023.884 1023.884,1023.884 856.993,843.509 		"/>
		<polygon fill-opacity="0" points="556.027,1023.766 556.099,1023.884 711.728,1023.884 652.549,891.438 		"/>
		<polygon fill-opacity="0" points="876.993,151.453 712.549,67.557 548.106,260.326 		"/>
		<polygon fill-opacity="0" points="888.106,486.994 1023.884,402.891 1023.884,374.835 876.993,151.453 		"/>
		<polygon fill-opacity="0" points="692.549,356.623 722.549,529.216 888.106,486.994 		"/>
		<polygon fill-opacity="0" points="169.216,123.661 -0.116,151.453 -0.116,151.453 55.883,363.661 		"/>
		<polygon fill-opacity="0" points="347.781,-0.116 347.781,-0.116 -0.116,-0.116 169.216,123.661 		"/>
		<path fill-opacity="0" d="M347.781-0.116L347.781-0.116L347.781-0.116z"/>
		<g>
			<g>
				<polygon opacity="0.05" enable-background="new    " points="347.298,418.106 55.883,363.661 216.994,555.884 				"/>
				<polygon opacity="0.05" enable-background="new    " points="347.606,151.196 347.781,-0.116 169.216,123.661 347.298,151.453 
									"/>
				<polygon opacity="0.05" enable-background="new    " points="347.606,151.619 548.106,260.326 461.672,55.884 461.671,55.884 
					347.606,151.196 				"/>
				<polygon opacity="0.05" enable-background="new    " points="216.994,555.884 142.995,880.773 237.451,801.986 				"/>
				<polygon opacity="0.05" enable-background="new    " points="237.451,801.986 237.451,801.987 457.146,862.988 479.218,600.328 
									"/>
				<polygon opacity="0.05" enable-background="new    " points="-0.116,843.509 142.995,880.773 64.995,720.55 				"/>
				<polygon opacity="0.05" enable-background="new    " points="692.549,356.623 692.549,356.623 548.106,260.326 722.549,529.216 
									"/>
				<polygon opacity="0.05" enable-background="new    " points="457.146,862.988 248.417,1023.884 555.942,1023.884 
					556.027,1023.766 				"/>
				<polygon opacity="0.05" enable-background="new    " points="786.595,678.935 856.993,843.509 1023.884,714.875 
					1023.884,703.419 				"/>
				<polygon opacity="0.05" enable-background="new    " points="652.549,891.438 711.728,1023.884 712.018,1023.884 
					856.993,843.509 				"/>
				<polygon opacity="0.05" enable-background="new    " points="1023.884,1023.884 1023.884,861.569 856.993,843.509 				"/>
				<polygon opacity="0.05" enable-background="new    " points="-0.116,1023.884 115.528,1023.884 142.995,880.773 				"/>
				<polygon opacity="0.05" enable-background="new    " points="888.106,486.994 876.993,151.453 692.549,356.623 				"/>
				<polygon opacity="0.05" enable-background="new    " points="786.595,678.935 888.106,486.994 722.549,529.216 				"/>
				<polygon opacity="0.05" enable-background="new    " points="-0.116,151.453 -0.116,523.53 55.883,363.661 				"/>
			</g>
			<g opacity="0.1">
				<polygon points="169.216,123.661 55.883,363.661 347.298,418.106 				"/>
				<polygon points="64.995,720.55 64.995,720.55 142.995,880.773 216.994,555.884 				"/>
				<polygon points="461.671,55.884 347.781,-0.116 347.781,-0.116 347.606,151.196 				"/>
				<polygon points="479.218,600.328 457.146,862.988 616.993,774.139 				"/>
				<polygon points="652.549,891.438 856.993,843.509 616.993,774.139 				"/>
				<polygon points="237.451,801.986 142.995,880.773 457.146,862.988 237.451,801.987 				"/>
				<polygon points="347.298,418.106 548.106,260.326 347.606,151.619 				"/>
				<polygon points="556.027,1023.766 652.549,891.438 457.146,862.988 				"/>
				<polygon points="722.549,529.216 548.106,260.326 548.106,477.564 				"/>
				<polygon points="216.994,555.884 237.451,801.986 237.451,801.986 347.298,418.106 				"/>
				<polygon points="548.106,477.564 347.298,418.106 479.218,600.328 				"/>
				<polygon points="876.993,151.453 888.106,-0.116 712.549,67.557 				"/>
				<polygon points="616.993,774.139 786.595,678.935 786.595,678.935 722.549,529.216 				"/>
				<polygon points="115.528,1023.884 236.09,1023.884 142.995,880.773 				"/>
				<polygon points="-0.116,843.509 -0.116,843.509 -0.116,1023.884 142.995,880.773 				"/>
				<polygon points="1023.884,861.569 1023.884,714.875 856.993,843.509 				"/>
				<polygon points="1023.884,685.596 1023.884,402.891 888.106,486.994 				"/>
				<polygon points="64.995,720.55 55.883,363.661 -0.116,523.53 -0.116,586.805 				"/>
				<polygon points="548.106,260.326 712.549,67.557 579.906,-0.116 548.106,-0.116 				"/>
				<polygon points="1023.884,374.835 1023.884,-0.116 876.993,151.453 				"/>
				<polygon points="692.549,356.623 876.993,151.453 548.106,260.326 				"/>
				<polygon points="-0.116,-0.116 -0.116,151.453 169.216,123.661 				"/>
			</g>
			<polygon opacity="0.02" enable-background="new    " points="461.671,55.884 528.69,-0.116 347.781,-0.116 347.781,-0.116 			"/>
		</g>
		<polygon fill-opacity="0" points="461.672,55.884 548.106,260.326 548.106,-0.116 528.69,-0.116 461.671,55.884 		"/>
		<path fill-opacity="0" d="M347.781-0.116L347.781-0.116L347.781-0.116z"/>
	</g>
</g>
</svg>
