<?xml version="1.0" encoding="utf-8"?>
<!-- Generator: Adobe Illustrator 16.0.0, SVG Export Plug-In . SVG Version: 6.00 Build 0)  -->
<!DOCTYPE svg PUBLIC "-//W3C//DTD SVG 1.1//EN" "http://www.w3.org/Graphics/SVG/1.1/DTD/svg11.dtd">
<svg version="1.1" xmlns="http://www.w3.org/2000/svg" xmlns:xlink="http://www.w3.org/1999/xlink" x="0px" y="0px" width="1024px"
	 height="1024px" viewBox="0 0 1024 1024" enable-background="new 0 0 1024 1024" xml:space="preserve">
<g id="Calque_1">
	<rect fill="#FFFFFF" width="1024" height="1024"/>
</g>
<g id="Calque_2">
	<g opacity="0.2">
		<polygon opacity="0" points="-0.232,711.946 0,712.133 0,711.843 		"/>
		<polygon opacity="0" points="872.265,347.721 872.431,347.414 900.223,169.332 605.778,347.414 		"/>
		<polygon opacity="0" points="660.223,55.999 303.334,65.111 468.001,217.11 		"/>
		<polygon opacity="0" points="160.896,457.261 132.446,652.665 249.744,617.109 		"/>
		<polygon opacity="0" points="249.744,617.109 180.375,857.109 344.949,786.71 344.949,786.71 		"/>
		<polygon opacity="0" points="872.431,347.414 872.265,347.721 872.688,347.721 		"/>
		<polygon opacity="0" points="956.327,712.665 1024,888.221 1024,580.021 		"/>
		<polygon opacity="0" points="249.744,617.109 494.668,722.665 423.556,479.333 		"/>
		<polygon opacity="0" points="1024,1024 1024,888.221 872.431,877.109 		"/>
		<polygon opacity="0" points="344.949,786.71 344.949,786.71 344.949,786.71 		"/>
		<polygon opacity="0" points="344.949,786.71 344.949,786.71 320.465,1024 338.288,1024 536.89,888.221 		"/>
		<polygon opacity="0" points="546.32,548.221 763.558,548.221 605.778,347.414 		"/>
		<polygon opacity="0" points="221.897,237.567 221.898,237.567 221.898,237.567 		"/>
		<polygon opacity="0" points="546.32,548.221 423.556,479.333 494.668,722.665 546.32,548.221 		"/>
		<polygon opacity="0" points="221.898,237.567 423.556,479.333 605.778,347.414 		"/>
		<polygon opacity="0" points="0,556.057 0,556.214 0.117,556.142 		"/>
		<polygon opacity="0" points="143.111,143.111 0,236.206 0,248.533 160.896,457.261 		"/>
		<polygon opacity="0" points="303.334,65.111 437.079,0 180.375,0 180.375,0 		"/>
		<polygon opacity="0" points="180.375,0 180.375,0 180.375,0 		"/>
		<polygon opacity="0" points="0,712.133 0,1024 180.375,857.109 		"/>
		<polygon opacity="0" points="0.117,556.142 0,556.214 0,711.843 132.446,652.665 		"/>
		<polygon opacity="0" points="872.431,877.109 956.327,712.665 763.558,548.221 		"/>
		<polygon opacity="0" points="536.89,888.221 620.993,1024 649.049,1024 872.431,877.109 		"/>
		<polygon opacity="0" points="667.261,692.665 494.668,722.665 536.89,888.221 667.261,692.665 		"/>
		<polygon opacity="0" points="900.223,169.332 872.431,0 872.431,0 660.223,55.999 		"/>
		<polygon opacity="0" points="1024,347.896 1024,347.896 1024,0 900.223,169.332 		"/>
		<polygon opacity="0" points="1024,347.896 1024,347.896 1024,347.896 		"/>
		<g>
			<g>
				<polygon opacity="0.05" points="605.778,347.414 660.223,55.999 468.001,217.11 				"/>
				<polygon opacity="0.05" points="872.688,347.721 1024,347.896 900.223,169.332 872.431,347.414 				"/>
				<polygon opacity="0.05" points="872.265,347.721 763.558,548.221 968,461.788 968,461.787 872.688,347.721 				"/>
				<polygon opacity="0.05" points="468.001,217.11 143.111,143.111 221.898,237.567 				"/>
				<polygon opacity="0.05" points="221.898,237.567 221.897,237.567 160.896,457.261 423.556,479.333 				"/>
				<polygon opacity="0.05" points="180.375,0 143.111,143.111 303.334,65.111 				"/>
				<polygon opacity="0.05" points="667.261,692.665 667.261,692.665 763.558,548.221 494.668,722.665 				"/>
				<polygon opacity="0.05" points="160.896,457.261 0,248.533 0,556.057 0.117,556.142 				"/>
				<polygon opacity="0.05" points="344.949,786.71 180.375,857.109 309.009,1024 320.465,1024 				"/>
				<polygon opacity="0.05" points="132.446,652.665 0,711.843 0,712.133 180.375,857.109 				"/>
				<polygon opacity="0.05" points="0,1024 162.315,1024 180.375,857.109 				"/>
				<polygon opacity="0.05" points="0,0 0,115.643 143.111,143.111 				"/>
				<polygon opacity="0.05" points="536.89,888.221 872.431,877.109 667.261,692.665 				"/>
				<polygon opacity="0.05" points="344.949,786.71 536.89,888.221 494.668,722.665 				"/>
				<polygon opacity="0.05" points="872.431,0 500.354,0 660.223,55.999 				"/>
			</g>
			<g opacity="0.1">
				<polygon points="900.223,169.332 660.223,55.999 605.778,347.414 				"/>
				<polygon points="303.334,65.111 303.334,65.111 143.111,143.111 468.001,217.11 				"/>
				<polygon points="968,461.787 1024,347.896 1024,347.896 872.688,347.721 				"/>
				<polygon points="423.556,479.333 160.896,457.261 249.744,617.109 				"/>
				<polygon points="132.446,652.665 180.375,857.109 249.744,617.109 				"/>
				<polygon points="221.898,237.567 143.111,143.111 160.896,457.261 221.897,237.567 				"/>
				<polygon points="605.778,347.414 763.558,548.221 872.265,347.721 				"/>
				<polygon points="0.117,556.142 132.446,652.665 160.896,457.261 				"/>
				<polygon points="494.668,722.665 763.558,548.221 546.32,548.221 				"/>
				<polygon points="468.001,217.11 221.898,237.567 221.898,237.567 605.778,347.414 				"/>
				<polygon points="546.32,548.221 605.778,347.414 423.556,479.333 546.32,548.221 				"/>
				<polygon points="872.431,877.109 1024,888.221 956.327,712.665 				"/>
				<polygon points="249.744,617.109 344.949,786.71 344.949,786.71 494.668,722.665 				"/>
				<polygon points="0,115.643 0,236.206 143.111,143.111 				"/>
				<polygon points="180.375,0 180.375,0 0,0 143.111,143.111 				"/>
				<polygon points="162.315,1024 309.009,1024 180.375,857.109 				"/>
				<polygon points="338.288,1024 620.993,1024 536.89,888.221 				"/>
				<polygon points="303.334,65.111 660.223,55.999 500.354,0 437.079,0 303.334,65.111 				"/>
				<polygon points="763.558,548.221 956.327,712.665 1024,580.021 1024,548.221 				"/>
				<polygon points="649.049,1024 1024,1024 872.431,877.109 				"/>
				<polygon points="667.261,692.665 872.431,877.109 763.558,548.221 				"/>
				<polygon points="1024,0 872.431,0 900.223,169.332 				"/>
			</g>
			<polygon opacity="0.02" points="968,461.787 1024,528.805 1024,347.896 1024,347.896 			"/>
		</g>
		<polygon opacity="0" points="968,461.788 763.558,548.221 1024,548.221 1024,528.805 968,461.787 		"/>
		<polygon opacity="0" points="1024,347.896 1024,347.896 1024,347.896 		"/>
	</g>
</g>
<g id="Calque_3">
	<radialGradient id="SVGID_1_" cx="512" cy="512" r="512" gradientUnits="userSpaceOnUse">
		<stop  offset="0" style="stop-color:#FFFFFF"/>
		<stop  offset="1" style="stop-color:#FFFFFF;stop-opacity:0"/>
	</radialGradient>
	<rect fill="url(#SVGID_1_)" width="1024" height="1024"/>
</g>
</svg>
