<?xml version="1.0" encoding="utf-8"?>
<!-- Generator: Adobe Illustrator 15.1.0, SVG Export Plug-In . SVG Version: 6.00 Build 0)  -->
<!DOCTYPE svg PUBLIC "-//W3C//DTD SVG 1.1//EN" "http://www.w3.org/Graphics/SVG/1.1/DTD/svg11.dtd">
<svg version="1.1" id="Calque_1" xmlns="http://www.w3.org/2000/svg" xmlns:xlink="http://www.w3.org/1999/xlink" x="0px" y="0px"
	 width="32px" height="32px" viewBox="0 0 32 32" enable-background="new 0 0 32 32" xml:space="preserve">
<path fill="#FFFFFF" d="M25.95,14.739c0-0.001-0.002-0.001-0.003-0.002l-7.459-7.459c-0.376-0.376-0.986-0.376-1.362,0
	c-0.376,0.377-0.376,0.987,0,1.363l5.813,5.815H6.76c-0.532,0-0.964,0.432-0.964,0.964s0.432,0.964,0.964,0.964h16.181L17.126,22.2
	c-0.376,0.377-0.377,0.986,0,1.364c0.376,0.376,0.986,0.376,1.362,0l7.462-7.463C26.326,15.726,26.326,15.115,25.95,14.739z"/>
</svg>
