<?xml version="1.0" encoding="utf-8"?>
<!-- Generator: Adobe Illustrator 15.1.0, SVG Export Plug-In . SVG Version: 6.00 Build 0)  -->
<!DOCTYPE svg PUBLIC "-//W3C//DTD SVG 1.1//EN" "http://www.w3.org/Graphics/SVG/1.1/DTD/svg11.dtd">
<svg version="1.1" id="Calque_1" xmlns="http://www.w3.org/2000/svg" xmlns:xlink="http://www.w3.org/1999/xlink" x="0px" y="0px"
	 width="40px" height="40px" viewBox="0 0 40 40" enable-background="new 0 0 40 40" xml:space="preserve">
<g>
	<circle fill="#FFFFFF" cx="15.762" cy="15.761" r="5.429"/>
	<path fill="#FFFFFF" d="M20,0C8.954,0,0,8.954,0,20s8.954,20,20,20c11.044,0,20-8.954,20-20S31.045,0,20,0z M29.685,29.684
		c-0.473,0.475-1.239,0.475-1.712,0l-8.152-8.152c-2.755,1.94-6.586,1.686-9.051-0.779c-2.757-2.756-2.757-7.227,0-9.984
		s7.228-2.757,9.985,0c2.465,2.465,2.72,6.295,0.778,9.051l8.151,8.15C30.159,28.444,30.159,29.211,29.685,29.684z"/>
</g>
</svg>
