<?xml version="1.0" encoding="utf-8"?>
<!-- Generator: Adobe Illustrator 15.1.0, SVG Export Plug-In . SVG Version: 6.00 Build 0)  -->
<!DOCTYPE svg PUBLIC "-//W3C//DTD SVG 1.1//EN" "http://www.w3.org/Graphics/SVG/1.1/DTD/svg11.dtd">
<svg version="1.1" id="Calque_1" xmlns="http://www.w3.org/2000/svg" xmlns:xlink="http://www.w3.org/1999/xlink" x="0px" y="0px"
	 width="40px" height="40px" viewBox="0 0 40 40" enable-background="new 0 0 40 40" xml:space="preserve">
<path fill="#FFFFFF" d="M20,0C8.954,0,0,8.954,0,20s8.954,20,20,20c11.044,0,20-8.954,20-20S31.045,0,20,0z M28.479,25.61
	c0.914,0,0.654,0.702,0.654,1.569c0,0.868-0.74,1.568-1.654,1.568h-7.59c0,0-8.271,0.195-8.271-1.946
	c0-2.141,0.195-9.341,0.195-9.341s5.644-2.141,5.644-5.644c0-3.503,0.39-5.06,2.141-3.308c1.411,1.412,1.673,4.192,1.216,5.838
	h6.666c0.914,0,1.654,0.703,1.654,1.569c0,0.868,0.26,1.571-0.654,1.571h-6.547v0.737h6.547c0.914,0,0.654,0.704,0.654,1.571
	c0,0.865,0.26,1.372-0.654,1.372h-6.547v0.749h6.547c0.914,0,0.654,0.703,0.654,1.571c0,0.865,0.281,1.513-0.633,1.513h-6.547
	l-0.021,0.61H28.479z"/>
</svg>
