<svg xmlns="http://www.w3.org/2000/svg" width="100px" height="100px" viewBox="0 0 100 100" >
<g id="asterisque">
	<polygon opacity="0.1" points="23.882,72.596 57.916,110.667 109.344,110.667 109.344,68.303 77.698,32.837 72.888,36.391 
		57.074,18.554 44.864,27.575 60.711,45.388 45.055,56.955 27.966,37.679 15.757,46.7 32.88,65.948 "/>
	<path fill="#FFFFFF" d="M73.085,50.622c3.073-1.16,6.596-2.411,10.545-3.727l-5.932-14.058l-10.102,3.949
		c-2.491,1.029-4.798,1.905-6.915,2.638c-2.13,0.732-3.336,1.169-3.631,1.322V18.554h-0.438H41.678v22.192
		c-0.296-0.152-1.501-0.589-3.629-1.322c-2.118-0.733-4.425-1.609-6.918-2.638l-10.1-3.949l-5.274,14.058
		c3.808,1.315,7.178,2.566,10.1,3.727c2.495,1.029,4.873,1.914,7.142,2.638c2.271,0.742,3.477,1.18,3.629,1.322L23.882,72.596
		l12.958,9.007l6.15-9.225c1.618-2.341,3.075-4.503,4.397-6.479c1.314-1.985,2.047-3.04,2.2-3.19l13.396,18.895l12.087-9.007
		c-2.351-3.222-4.47-6.151-6.375-8.788c-1.617-2.199-3.074-4.245-4.397-6.149c-1.314-1.904-2.045-2.934-2.188-3.076
		c0.285-0.143,1.536-0.58,3.725-1.322C68.035,52.536,70.451,51.651,73.085,50.622z"/>
</g>
</svg>
