<?xml version="1.0" encoding="utf-8"?>
<!-- Generator: Adobe Illustrator 15.1.0, SVG Export Plug-In . SVG Version: 6.00 Build 0)  -->
<!DOCTYPE svg PUBLIC "-//W3C//DTD SVG 1.1//EN" "http://www.w3.org/Graphics/SVG/1.1/DTD/svg11.dtd">
<svg version="1.1" id="Calque_1" xmlns="http://www.w3.org/2000/svg" xmlns:xlink="http://www.w3.org/1999/xlink" x="0px" y="0px"
	 width="100px" height="50px" viewBox="0 0 100 50" enable-background="new 0 0 100 50" xml:space="preserve">
<path fill="#FFFFFF" d="M81.541,33.274V9.161c0-0.833-4.482-2.301-5.275-2.221c-0.793,0.08-2.261,0.357-2.261,0.357H50.367H26.729
	c0,0-1.467-0.277-2.26-0.357c-0.794-0.08-5.276,1.388-5.276,2.221v24.114c0,0-0.03,0.539,0.477,0.652v8.351
	c0,0.183-0.003,0.91,0.395,0.91h2.015c0.436,0,4.224-6.2,4.372-6.513c0.103-0.216,0.12-1.78,0.121-2.726h23.794h23.794
	c0.001,0.945,0.019,2.51,0.121,2.726c0.148,0.313,3.937,6.513,4.373,6.513h2.014c0.399,0,0.396-0.728,0.396-0.91v-8.351
	C81.57,33.813,81.541,33.274,81.541,33.274 M24.667,36.422c-0.015,0.238-2.513,3.822-2.663,3.808
	c-0.101-0.011-0.064-3.849-0.03-6.28h2.698C24.675,35.044,24.676,36.292,24.667,36.422 M78.729,40.229
	c-0.149,0.015-2.646-3.569-2.662-3.808c-0.008-0.13-0.008-1.378-0.005-2.473h2.697C78.794,36.381,78.83,40.219,78.729,40.229"/>
</svg>
