<?xml version="1.0" encoding="utf-8"?>
<!-- Generator: Adobe Illustrator 15.1.0, SVG Export Plug-In . SVG Version: 6.00 Build 0)  -->
<!DOCTYPE svg PUBLIC "-//W3C//DTD SVG 1.1//EN" "http://www.w3.org/Graphics/SVG/1.1/DTD/svg11.dtd">
<svg version="1.1" id="Calque_1" xmlns="http://www.w3.org/2000/svg" xmlns:xlink="http://www.w3.org/1999/xlink" x="0px" y="0px"
	 width="100px" height="50px" viewBox="0 0 100 50" enable-background="new 0 0 100 50" xml:space="preserve">
<path fill="#FFFFFF" d="M92.448,21.566h-5.089v-6.687c0-1.625-1.316-2.944-2.943-2.944H65.648c-1.626,0-2.943,1.32-2.943,2.944
	c0-1.625-1.318-2.944-2.944-2.944h-9.384h-9.384c-1.625,0-2.943,1.32-2.943,2.944c0-1.625-1.318-2.944-2.944-2.944H16.339
	c-1.626,0-2.944,1.32-2.944,2.944v6.687H8.304c-1.51,0-6.991,0.812-6.991,2.636v20.302c0,1.669-0.016,2.851,1.502,2.851h1.473v1.047
	c0,0.501,0.368,0.908,0.823,0.908h4.618c0.455,0,0.823-0.407,0.823-0.908v-1.047h39.825h39.826v1.047
	c0,0.501,0.367,0.908,0.823,0.908h4.616c0.455,0,0.824-0.407,0.824-0.908v-1.047h1.472c1.518,0,1.502-1.182,1.502-2.851V24.202
	C99.44,22.378,93.961,21.566,92.448,21.566"/>
</svg>
