<?xml version="1.0" encoding="utf-8"?>
<!-- Generator: Adobe Illustrator 15.1.0, SVG Export Plug-In . SVG Version: 6.00 Build 0)  -->
<!DOCTYPE svg PUBLIC "-//W3C//DTD SVG 1.1//EN" "http://www.w3.org/Graphics/SVG/1.1/DTD/svg11.dtd">
<svg version="1.1" id="Calque_1" xmlns="http://www.w3.org/2000/svg" xmlns:xlink="http://www.w3.org/1999/xlink" x="0px" y="0px"
	 width="100px" height="50px" viewBox="0 0 100 50" enable-background="new 0 0 100 50" xml:space="preserve">
<path fill="#FFFFFF" d="M32.959,3.403v42.544h2.983v-9.211h28.228v9.211h2.783V3.403H32.959z M64.171,35.146H55.82v-6.263h-2.285
	v6.263h-0.895v-6.263h-2.285v6.263h-0.798v-6.263h-2.285v6.263h-0.946v-6.263h-2.285v6.263h-0.896v-6.263h-2.285v6.263h-0.798
	v-6.263H37.78v6.263h-1.837v-9.079h28.228V35.146z M64.171,24.478h-1.613l0.48-0.11l-1.467-6.462l-2.229,0.506l1.375,6.066h-1.375
	v-6.4h-2.288v6.4H46.378v-6.431h-2.285v6.429h-0.895v-6.429h-2.288v6.429h-0.794v-6.429h-2.286v6.429h-1.888v-8.481h28.228V24.478z
	 M64.171,14.404h-0.943V7.776H60.94v6.627h-0.895V7.776h-2.285v6.627h-0.795V7.776h-2.288v6.627H43.332l1.474-0.337l-1.467-6.462
	l-2.229,0.507l1.429,6.292h-1.429V7.776h-2.285v6.627h-2.883V4.993h28.228V14.404z M64.171,14.404"/>
</svg>
